<svg xmlns="http://www.w3.org/2000/svg" xmlns:xlink="http://www.w3.org/1999/xlink" width="79" height="33" viewBox="0 0 79 33">
    <defs>
        <path id="a" d="M.844.532h4.33v4.304H.845z"/>
    </defs>
    <g fill="none" fill-rule="evenodd">
        <path fill="#6D1ED4" d="M46.636 27.004c-.475-.833-.772-1.77-.908-2.865a.55.55 0 0 0-.224-.38.537.537 0 0 0-.43-.098c-.206.041-.41.061-.609.061-.638 0-1.128-.106-1.128-1.46v-1.296l-.001.002V2.774a.508.508 0 0 0-.507-.506h-3.67a.508.508 0 0 0-.507.506v19.925c0 1.493.138 2.622.823 3.629.835 1.153 2.502 1.821 4.035 1.821l.238-.001h.002c.93 0 1.838-.085 2.59-.345a.56.56 0 0 0 .296-.8M56.598 26.364c-.676-.989-.886-1.159-1.341-2.226-.063-.141-.102-.29-.225-.38a.567.567 0 0 0-.431-.097c-.206.04-.41.06-.609.06-.638 0-1.128-.106-1.128-1.459v-1.296h-.004V2.772a.504.504 0 0 0-.504-.505h-3.672a.504.504 0 0 0-.503.505V22.7c0 1.492.136 2.62.82 3.626.836 1.154 2.505 1.823 4.034 1.823l.24-.001h.004c.93 0 1.838-.085 2.585-.346.157-.053.712-.338.828-.454.358-.371 0-.849-.094-.985M27.456 8.783c-2.786 0-5.152.982-6.844 2.841-1.594 1.75-2.473 4.21-2.473 6.926 0 2.757.871 5.122 2.515 6.84 1.729 1.806 4.207 2.76 7.169 2.76 3.198 0 5.88-1.123 7.974-3.335.192-.201.2-.572-.015-.714-.218-.141-1.308-.881-2.403-2.306-.13-.088-.22-.14-.35-.14h-.016a.501.501 0 0 0-.354.16c-1.258 1.358-2.872 1.91-4.734 1.91-2.758 0-4.457-1.302-4.788-3.833h12.795a.506.506 0 0 0 .502-.451c.046-.41.07-.87.07-1.325 0-2.621-.859-4.983-2.418-6.654-1.64-1.752-3.932-2.679-6.63-2.679zm-4.233 7.424c.383-2.106 2.007-3.436 4.265-3.436 2.281 0 3.826 1.273 4.228 3.436h-8.493zM65.591 8.783c-2.786 0-5.153.982-6.842 2.841-1.595 1.75-2.474 4.21-2.474 6.926 0 2.757.87 5.122 2.515 6.84 1.728 1.806 4.207 2.76 7.167 2.76 3.198 0 5.88-1.123 7.975-3.335.191-.201.2-.572-.016-.714-.216-.141-1.307-.881-2.403-2.306-.13-.088-.218-.14-.348-.14h-.016a.508.508 0 0 0-.356.16c-1.257 1.358-2.872 1.91-4.733 1.91-2.757 0-4.456-1.302-4.789-3.833h12.796a.508.508 0 0 0 .503-.451c.046-.41.07-.87.07-1.325 0-2.621-.859-4.983-2.418-6.654-1.64-1.752-3.933-2.679-6.63-2.679zm-4.232 7.424c.385-2.106 2.008-3.436 4.265-3.436 2.281 0 3.826 1.273 4.228 3.436h-8.493z"/>
        <path fill="#6D1ED4" d="M19.043 26.887c-.018-.019-.037-.035-.055-.053-.015-.015-.029-.027-.043-.043a10.62 10.62 0 0 1-2.072-3.158.506.506 0 0 0-.464-.307H6.78L18.555 8.231c.07-.09.108-.2.108-.313v-2.94a.506.506 0 0 0-.505-.507h-6.352V.253A.254.254 0 0 0 11.554 0H7.65a.252.252 0 0 0-.253.253V4.47H1.171a.505.505 0 0 0-.503.507v3.41c0 .278.225.505.503.505h10.81L.274 23.854a.51.51 0 0 0-.107.314v3.076c0 .278.226.504.505.504H7.4v4.218c0 .141.113.254.253.254H11.557a.254.254 0 0 0 .253-.254v-4.218h6.872a.51.51 0 0 0 .467-.31.512.512 0 0 0-.106-.551"/>
        <g transform="translate(73.725 3.937)">
            <mask id="b" fill="#fff">
                <use xlink:href="#a"/>
            </mask>
            <path fill="#6D1ED4" d="M.844 2.696c0-.306.058-.595.173-.86A2.156 2.156 0 0 1 2.173.7c.26-.112.54-.167.836-.167.293 0 .57.055.834.167a2.134 2.134 0 0 1 1.158 1.127c.116.26.174.543.174.847a2.148 2.148 0 0 1-.642 1.546 2.18 2.18 0 0 1-1.524.617 2.155 2.155 0 0 1-1.523-.614 2.135 2.135 0 0 1-.47-.679 2.075 2.075 0 0 1-.172-.847zm.347 0c0 .258.047.498.14.72.095.223.225.416.392.578.164.167.357.296.575.388.22.096.457.142.71.142.255 0 .492-.046.711-.142a1.807 1.807 0 0 0 .968-.977 1.88 1.88 0 0 0 .141-.732c0-.258-.047-.5-.14-.723a1.849 1.849 0 0 0-.391-.582 1.868 1.868 0 0 0-.578-.385A1.865 1.865 0 0 0 2.3.986a1.917 1.917 0 0 0-.576.389c-.167.165-.297.36-.391.584a1.898 1.898 0 0 0-.141.737zm1.016-1.243h.912c.3 0 .522.057.663.17.144.116.215.298.215.547 0 .224-.064.388-.191.493a.896.896 0 0 1-.468.186l.717 1.098H3.68l-.681-1.072h-.446v1.072h-.345V1.453zm.345 1.11h.429c.084 0 .167-.002.247-.008a.732.732 0 0 0 .217-.047.353.353 0 0 0 .15-.123.414.414 0 0 0 .055-.233.404.404 0 0 0-.048-.205.336.336 0 0 0-.13-.118.646.646 0 0 0-.182-.052 1.717 1.717 0 0 0-.2-.013h-.538v.799z" mask="url(#b)"/>
        </g>
    </g>
</svg>
