<svg xmlns="http://www.w3.org/2000/svg" width="17" height="13" viewBox="0 0 17 13">
    <path fill="#008A25" fill-rule="nonzero" d="M12.852 1.9l.11-.115c.53-.559.53-.559 1.062-1.117l.038-.041c.126-.133.2-.206.316-.292A1.568 1.568 0 0 1 16.12.204c.535.291.844.809.88 1.458-.006.431-.13.799-.382 1.112a2.942 2.942 0 0 1-.191.214l-.033.035-8.859 9.316c-.834.877-1.795.883-2.627.008l-1.232-1.295A2528.863 2528.863 0 0 0 .55 7.767c-.472-.495-.674-1.09-.472-1.76.341-1.14 1.673-1.581 2.597-.833.09.074.147.13.251.241l.036.038.784.824c1.19 1.25 1.84 1.932 2.473 2.604C7.998 7.004 9.613 5.305 12.852 1.9z"/>
</svg>
