<svg xmlns="http://www.w3.org/2000/svg" width="58" height="22" viewBox="0 0 58 22">
    <g fill="none" fill-rule="evenodd">
        <path fill="#FF6000" d="M37.977 17.934a1 1 0 0 1-1-1v-.776c-1.705-.344-2.932-1.55-2.932-3.027a1 1 0 0 1 2 0c0 .53.827 1.124 1.932 1.124 1.106 0 1.932-.593 1.932-1.124 0-.53-.826-1.123-1.932-1.123-2.205 0-3.932-1.372-3.932-3.124 0-1.476 1.227-2.682 2.932-3.026V5.08a1 1 0 0 1 2 0v.777c1.706.344 2.932 1.55 2.932 3.026a1 1 0 1 1-2 0c0-.53-.826-1.124-1.932-1.124-1.105 0-1.932.594-1.932 1.124 0 .53.827 1.124 1.932 1.124 2.205 0 3.932 1.372 3.932 3.123 0 1.477-1.226 2.683-2.932 3.027v.776a1 1 0 0 1-1 1zM21.27 2.894a1 1 0 0 0-1 1V18.12a1 1 0 0 0 1 1h10.676a10.1 10.1 0 0 1 .001-16.227H21.27zm16.708 0c-4.474 0-8.114 3.64-8.114 8.114s3.64 8.113 8.114 8.113 8.114-3.64 8.114-8.113c0-4.474-3.64-8.114-8.114-8.114zM44.01 19.12h10.676a1 1 0 0 0 1-1V3.894a1 1 0 0 0-1-1H44.008a10.1 10.1 0 0 1 .001 16.227zm10.676 2H21.27c-1.655 0-3-1.345-3-3V3.894c0-1.654 1.345-3 3-3h33.416c1.655 0 3 1.346 3 3V18.12a3.003 3.003 0 0 1-3 3z"/>
        <path stroke="#FF6000" stroke-linecap="round" stroke-linejoin="round" stroke-width="2" d="M1 3h8.048M3.069 7.976h8.048M5.138 12.941h8.048"/>
    </g>
</svg>
