<svg xmlns="http://www.w3.org/2000/svg" width="34" height="32" viewBox="0 0 34 32">
    <path fill="#FF6000" fill-rule="evenodd" d="M12.403 26.036a1 1 0 1 1 0-2h16.41a1 1 0 1 1 0 2h-16.41zM17.755 3.96l2.436 1.563.694-1.082a.572.572 0 0 0 .077-.44.578.578 0 0 0-.253-.368L19.257 2.7a.59.59 0 0 0-.807.177l-.695 1.082zM7.82 19.449l-.537 3.518 2.973-1.955 6.95-10.836.02-.031 1.885-2.94-2.437-1.561-3.57 5.566c-.011.02-.023.038-.035.056l-5.25 8.183zm-4.86-7.75a.798.798 0 0 0-.796.797v15.952c0 .433.365.798.796.798h27.973c.44 0 .797-.358.797-.798V12.496a.798.798 0 0 0-.797-.797H18.606l-6.78 10.572a1.005 1.005 0 0 1-.292.296l-5.03 3.305a1.001 1.001 0 0 1-1.538-.987l.91-5.948a.996.996 0 0 1 .147-.39l4.393-6.848H2.96zm0 19.547a2.8 2.8 0 0 1-2.796-2.798V12.496A2.8 2.8 0 0 1 2.96 9.699h8.737l5.068-7.901a2.587 2.587 0 0 1 3.57-.78l1.453.93c.58.373.98.95 1.128 1.626a2.569 2.569 0 0 1-.348 1.947l-2.681 4.178h11.046a2.8 2.8 0 0 1 2.797 2.797v15.952a2.8 2.8 0 0 1-2.797 2.798H2.96z"/>
</svg>
