<svg width="7px" height="12px" viewBox="0 0 7 12" version="1.1" xmlns="http://www.w3.org/2000/svg" xmlns:xlink="http://www.w3.org/1999/xlink">
    <g stroke="none" stroke-width="1" fill="none" fill-rule="evenodd">
        <g transform="translate(-321.000000, -64.000000)" fill="#FFFFFF">
            <g>
                <g transform="translate(15.000000, 45.000000)">
                    <g>
                        <g>
                            <g transform="translate(306.000000, 19.000000)">
                                <path d="M0.244140625,6.42089978 L5.32226562,11.4990248 C5.68034033,11.8570995 6.03840967,11.8570995 6.39648438,11.4990248 C6.55924561,11.3362635 6.640625,11.1490909 6.640625,10.9375013 C6.640625,10.7259117 6.55924561,10.555015 6.39648438,10.424806 L1.90429688,5.88379041 L6.39648438,1.34277478 C6.78711133,0.984700073 6.79524927,0.626630737 6.42089844,0.26855603 C6.04654761,-0.0895186768 5.68034033,-0.0895186768 5.32226562,0.26855603 L0.244140625,5.34668103 C0.0813793945,5.47689001 0,5.65592468 0,5.88379041 C0,6.11165613 0.0813793945,6.2906908 0.244140625,6.42089978 Z" transform="translate(3.347844, 5.883790) scale(-1, 1) translate(-3.347844, -5.883790) "></path>
                            </g>
                        </g>
                    </g>
                </g>
            </g>
        </g>
    </g>
</svg>