<svg width="12px" height="12px" viewBox="0 0 12 12" version="1.1" xmlns="http://www.w3.org/2000/svg" xmlns:xlink="http://www.w3.org/1999/xlink">
    <g stroke="none" stroke-width="1" fill="none" fill-rule="evenodd">
        <g transform="translate(-48.000000, -3.000000)" fill="#1E71AC">
            <path d="M48.2747895,14.1634614 C48.6491403,14.5378122 49.0153476,14.5296743 49.3734223,14.1390473 L53.7191254,9.84217231 L58.0648286,14.1390473 C58.4229033,14.5296743 58.7891105,14.5378122 59.1634614,14.1634614 C59.5378122,13.7891105 59.5296743,13.4229033 59.1390473,13.0648286 L54.8421723,8.71912544 L59.1390473,4.37342231 C59.5296743,4.0153476 59.5378122,3.64914033 59.1634614,3.2747895 C58.7891105,2.90043867 58.4229033,2.90857661 58.0648286,3.29920356 L53.7191254,7.59607856 L49.3734223,3.29920356 C49.0153476,2.90857661 48.6491403,2.90043867 48.2747895,3.2747895 C47.9004387,3.64914033 47.9085766,4.0153476 48.2992036,4.37342231 L52.5960786,8.71912544 L48.2992036,13.0648286 C47.9085766,13.4229033 47.9004387,13.7891105 48.2747895,14.1634614 Z" id="M"></path>
        </g>
    </g>
</svg>