<svg xmlns="http://www.w3.org/2000/svg" width="52" height="52"><g fill="none"><path fill="#FF6000" d="M40.845 34.317a1.156 1.156 0 0 1 0 2.31 5.96 5.96 0 1 1 5.96-5.964 1.156 1.156 0 0 1-2.311.002 3.65 3.65 0 1 0-3.65 3.652z"/><path fill="#FF6000" d="M40.845 36.628a1.156 1.156 0 1 1 0-2.311 5.96 5.96 0 1 1-5.96 5.962 1.156 1.156 0 0 1 2.312 0 3.648 3.648 0 1 0 3.648-3.651zM42 25.864a1.156 1.156 0 1 1-2.31 0v-4.805a1.156 1.156 0 1 1 2.31 0v4.805z"/><path fill="#FF6000" d="M42 49.885a1.156 1.156 0 0 1-2.31 0v-4.804a1.156 1.156 0 1 1 2.31 0v4.804z"/><path fill="#B6B6B6" d="M33.411 47.706a1.156 1.156 0 0 1 .677 2.21c-13.284 4.07-27.352-3.4-31.422-16.683S6.066 5.882 19.35 1.81c13.284-4.07 27.353 3.4 31.422 16.683l.053.175a1.156 1.156 0 0 1-2.214.661l-.048-.158C44.866 7.107 32.09.324 20.026 4.02 7.962 7.717 1.18 20.493 4.876 32.555 8.573 44.62 21.349 51.403 33.412 47.706z"/><path fill="#B6B6B6" d="M27.798 44.76a1.156 1.156 0 0 1 .14 2.306c-9.71.587-18.678-5.552-21.567-14.98-3.434-11.21 2.87-23.084 14.082-26.52 9.588-2.938 19.563.666 24.388 8.848a1.156 1.156 0 0 1-1.99 1.174C38.579 8.347 29.718 5.145 21.13 7.777c-9.992 3.059-15.612 13.64-12.55 23.631 2.575 8.4 10.568 13.874 19.218 13.35v.001z"/><path fill="#B6B6B6" d="M25.276 14.028a1.156 1.156 0 0 1 2.311 0V27.02h-8.245a1.156 1.156 0 1 1 0-2.31h5.934V14.03z"/><path fill="#FF6000" d="M42.458 25.426a1.156 1.156 0 0 1-2.311 0v-3.47a1.156 1.156 0 1 1 2.31 0v3.47zm0 23.11a1.156 1.156 0 0 1-2.311 0v-3.47a1.156 1.156 0 1 1 2.31 0v3.47z"/></g></svg>