<svg xmlns="http://www.w3.org/2000/svg" width="24" height="24"><path fill="#63686B" fill-rule="evenodd" d="M9.244 12.61l1.733 1.645c.578.55 1.468.55 2.046 0l1.733-1.644 5.639 5.423H3.605l5.64-5.423zm11.847-6.026V17.4l-5.654-5.439 5.654-5.378zm-18.182 0l5.654 5.378-5.654 5.439V6.584zm.71-.618h16.762l-7.969 7.573c-.194.184-.63.184-.824 0L3.62 5.966zM3.364 5C2.616 5 2 5.654 2 6.448v11.104C2 18.346 2.616 19 3.364 19h17.272c.748 0 1.364-.654 1.364-1.448V6.448C22 5.654 21.384 5 20.636 5H3.364z"/></svg>