<svg xmlns="http://www.w3.org/2000/svg" width="52" height="52"><g fill="none"><path fill="#FF6000" d="M10.961 8.109a2.452 2.452 0 0 0-2.448-2.456 2.452 2.452 0 0 0-2.449 2.456 2.452 2.452 0 0 0 2.449 2.455c1.352 0 2.448-1.1 2.448-2.455zm2.305 0a4.76 4.76 0 0 1-4.753 4.766A4.76 4.76 0 0 1 3.76 8.11a4.76 4.76 0 0 1 4.753-4.767 4.76 4.76 0 0 1 4.753 4.767zm7.18-3.612c0-.682-.551-1.236-1.232-1.236-.681 0-1.233.554-1.233 1.236 0 .683.552 1.237 1.233 1.237.68 0 1.233-.554 1.233-1.237zm2.305 0a3.543 3.543 0 0 1-3.537 3.548 3.543 3.543 0 0 1-3.538-3.548A3.543 3.543 0 0 1 19.214.95a3.543 3.543 0 0 1 3.537 3.547z"/><path fill="#B6B6B6" d="M37.17 23.67c0 .639-.516 1.156-1.152 1.156a1.154 1.154 0 0 1-1.153-1.156 3.543 3.543 0 0 1 3.538-3.547 3.543 3.543 0 0 1 3.537 3.547c0 .639-.516 1.156-1.152 1.156a1.154 1.154 0 0 1-1.152-1.156c0-.682-.552-1.236-1.233-1.236s-1.233.554-1.233 1.236z"/><path fill="#FF6000" d="M20.518 16.486a3.67 3.67 0 0 0-3.664-3.674 3.67 3.67 0 0 0-3.664 3.674 3.67 3.67 0 0 0 3.664 3.675 3.67 3.67 0 0 0 3.664-3.675zm2.305 0c0 3.306-2.672 5.986-5.969 5.986-3.296 0-5.969-2.68-5.969-5.986 0-3.306 2.673-5.985 5.97-5.985 3.296 0 5.968 2.68 5.968 5.985z"/><path fill="#B6B6B6" d="M44.239 18.606a7.663 7.663 0 0 1 2.308 5.463c0 .922.002 1.775 0 2.548a1.243 1.243 0 0 0 1.237 1.243c.94 0 1.841.374 2.506 1.04a3.557 3.557 0 0 1 1.038 2.513v3.735a3.544 3.544 0 0 1-1.475 2.884c-1.687 1.21-4.621 2.548-8.84 4.206-1.493.588-3.037 3.592-3.73 6.84a3.548 3.548 0 0 1-3.442 2.817l-3.734.023a3.541 3.541 0 0 1-3.196-1.975l-1.08-2.186a1.237 1.237 0 0 0-1.11-.691h-1.855c-.475 0-.91.275-1.115.706l-1.01 2.114a3.541 3.541 0 0 1-3.242 2.021l-3.518-.047a3.546 3.546 0 0 1-3.46-3.059 22.03 22.03 0 0 0-2.09-6.713 21.461 21.461 0 0 0-1.57-2.686 12.44 12.44 0 0 0-.663-.889C-.238 31.321-.238 24.552 3.689 18.931c.98-1.402 1.965-2.394 2.65-2.94a1.15 1.15 0 0 1 1.856.738c.06.409-.102.818-.425 1.075-.229.19-.448.393-.656.607a14.022 14.022 0 0 0-1.537 1.846c-3.342 4.784-3.342 10.366 2.35 16.729.177.204.465.574.829 1.1a23.764 23.764 0 0 1 1.74 2.975 24.33 24.33 0 0 1 2.306 7.42c.086.606.6 1.06 1.21 1.068l3.518.046c.482.007.924-.268 1.133-.705l1.008-2.114a3.541 3.541 0 0 1 3.197-2.021h1.854a3.54 3.54 0 0 1 3.173 1.976l1.08 2.186c.21.425.644.693 1.117.69l3.734-.023a1.242 1.242 0 0 0 1.204-.99c.843-3.956 2.686-7.54 5.142-8.507 4.024-1.583 6.868-2.878 8.34-3.934.32-.23.511-.604.511-1.006v-3.734a1.24 1.24 0 0 0-1.239-1.242 3.548 3.548 0 0 1-3.542-3.559v-2.538a5.348 5.348 0 0 0-1.612-3.814c-.964-.944-1.866-1.683-2.604-2.103-1.184-.67-1.087-1.9-.152-2.644a5.4 5.4 0 0 1 .81-.512c.123-.067.254-.134.424-.222l.422-.214c.64-.33.995-.547 1.094-.64l2.063-2.441-8.625 2.01a1.15 1.15 0 0 1-.265.03l-9.58-.034a1.154 1.154 0 0 1-1.15-1.16 1.154 1.154 0 0 1 1.157-1.151l9.448.033 8.73-2.034c2.099-.897 3.98 1.803 2.374 3.402l-2.458 2.909c-.395.396-.879.692-1.738 1.132l-.392.201c.653.486 1.34 1.088 2.05 1.784zm1.017-7.283a.204.204 0 0 0 .022-.007l-.022.007z"/></g></svg>